<svg xmlns="http://www.w3.org/2000/svg" viewBox="0 0 338.33 373.51"><defs><style>.cls-1{fill:#fff;}.cls-2{fill:#263238;}.cls-3{fill:#e8505b;}.cls-4{fill:#ffbe9d;}.cls-5{fill:#eb996e;}.cls-6{fill:#455a64;}.cls-7{fill:#f5f5f5;}.cls-8{opacity:0.4;}</style></defs><g id="Layer_2" data-name="Layer 2"><g id="Screen"><rect class="cls-1" x="4.47" y="2.67" width="229.61" height="229.61"/><path class="cls-2" d="M234.09,232.28c0-1.92-.09-91.95-.23-229.61l.23.23L4.5,2.93h0l.26-.26c0,84.08,0,162.88,0,229.61l-.23-.22,229.62.22-229.62.23H4.25v-.23c0-66.73,0-145.53,0-229.61V2.41H4.5l229.59,0h.22v.22C234.18,140.33,234.09,230.36,234.09,232.28Z"/><rect class="cls-2" width="238.53" height="13.22"/><path class="cls-2" d="M104.47,68.37l-3.42,17.08H99.81l1.61-8.1H90l-1.61,8.1H87.15l3.41-17.08h1.25l-1.57,7.84h11.42l1.56-7.84Z"/><path class="cls-2" d="M107.64,79.35c0,.27,0,.54,0,.81,0,2.75,1.61,4.29,4.71,4.29a5.87,5.87,0,0,0,4.37-1.71l.56.86a6.86,6.86,0,0,1-5,2c-3.62,0-5.81-2-5.81-5.34,0-4.35,2.95-7.59,6.95-7.59,3.32,0,5.42,2,5.42,5.32a7.62,7.62,0,0,1-.15,1.41Zm.15-.95h9.81c0-.22,0-.41,0-.63,0-2.64-1.75-4.1-4.29-4.1A5.61,5.61,0,0,0,107.79,78.4Z"/><path class="cls-2" d="M124.8,67.35H126l-3.61,18.1h-1.22Z"/><path class="cls-2" d="M131.16,67.35h1.22l-3.61,18.1h-1.22Z"/><path class="cls-2" d="M133.73,80.26c0-4.37,3.05-7.64,7.29-7.64,3.44,0,5.64,2,5.64,5.29,0,4.39-3,7.64-7.3,7.64C135.92,85.55,133.73,83.48,133.73,80.26ZM145.44,78c0-2.71-1.66-4.27-4.52-4.27-3.44,0-6,2.73-6,6.46,0,2.71,1.66,4.27,4.51,4.27C142.9,84.45,145.44,81.74,145.44,78Z"/><path class="cls-2" d="M148.73,84.6a1,1,0,0,1,1-1,1,1,0,0,1,1,1,1,1,0,0,1-1,1A1,1,0,0,1,148.73,84.6Zm3.54-16.23h1.42L151,80.55h-.92Z"/><path class="cls-2" d="M39.12,109.58c0-5.81,4.44-10,10.41-10a9.87,9.87,0,0,1,7.7,3.25L54.89,105a6.83,6.83,0,0,0-5.19-2.27,6.83,6.83,0,1,0,0,13.66,6.73,6.73,0,0,0,5.19-2.31l2.34,2.23a9.87,9.87,0,0,1-7.72,3.24C43.56,119.57,39.12,115.38,39.12,109.58Z"/><path class="cls-2" d="M58.59,111.88c0-4.44,3.33-7.58,7.88-7.58s7.92,3.14,7.92,7.58-3.31,7.61-7.92,7.61S58.59,116.33,58.59,111.88Zm12.3,0a4.41,4.41,0,1,0-4.42,4.64A4.32,4.32,0,0,0,70.89,111.88Z"/><path class="cls-2" d="M92.33,110.8v8.5H88.86v-8.06c0-2.63-1.31-3.91-3.53-3.91-2.47,0-4.14,1.5-4.14,4.47v7.5H77.72V104.47H81v1.91a6.46,6.46,0,0,1,5.11-2.08C89.69,104.3,92.33,106.33,92.33,110.8Z"/><path class="cls-2" d="M100.57,103.69v.89h4.09v2.78h-4V119.3H97.21V107.36H94.77v-2.78h2.44v-1c0-3.11,1.86-5.13,5.31-5.13a5.62,5.62,0,0,1,3.14.8l-1,2.61a3.39,3.39,0,0,0-1.91-.61C101.32,101.3,100.57,102.11,100.57,103.69Z"/><path class="cls-2" d="M120.65,113H109c.41,2.17,2.22,3.56,4.8,3.56a5.33,5.33,0,0,0,4-1.61l1.86,2.14a7.52,7.52,0,0,1-6,2.41c-5,0-8.19-3.19-8.19-7.61a7.37,7.37,0,0,1,7.66-7.58c4.33,0,7.5,3,7.5,7.67C120.71,112.24,120.68,112.66,120.65,113ZM109,110.69h8.41a4,4,0,0,0-4.19-3.61A4.09,4.09,0,0,0,109,110.69Z"/><path class="cls-2" d="M132.62,104.3v3.31a4,4,0,0,0-.8-.09c-2.64,0-4.31,1.56-4.31,4.58v7.2H124V104.47h3.3v2.16C128.34,105.08,130.15,104.3,132.62,104.3Z"/><path class="cls-2" d="M149.31,113H137.68c.41,2.17,2.22,3.56,4.8,3.56a5.33,5.33,0,0,0,4-1.61l1.86,2.14a7.54,7.54,0,0,1-6,2.41c-5,0-8.2-3.19-8.2-7.61a7.38,7.38,0,0,1,7.67-7.58c4.33,0,7.5,3,7.5,7.67C149.37,112.24,149.34,112.66,149.31,113Zm-11.66-2.3h8.41a4,4,0,0,0-4.19-3.61A4.09,4.09,0,0,0,137.65,110.69Z"/><path class="cls-2" d="M167.31,110.8v8.5h-3.47v-8.06c0-2.63-1.31-3.91-3.53-3.91-2.47,0-4.14,1.5-4.14,4.47v7.5H152.7V104.47H156v1.91a6.46,6.46,0,0,1,5.11-2.08C164.67,104.3,167.31,106.33,167.31,110.8Z"/><path class="cls-2" d="M170.64,111.88c0-4.44,3.33-7.58,8-7.58,2.89,0,5.2,1.19,6.34,3.44l-2.67,1.56a4.19,4.19,0,0,0-3.69-2.06,4.64,4.64,0,0,0,0,9.28,4.2,4.2,0,0,0,3.69-2L185,116a6.76,6.76,0,0,1-6.34,3.47C174,119.49,170.64,116.33,170.64,111.88Z"/><path class="cls-2" d="M201.66,113H190c.42,2.17,2.22,3.56,4.81,3.56a5.31,5.31,0,0,0,4-1.61l1.86,2.14a7.51,7.51,0,0,1-6,2.41c-5,0-8.19-3.19-8.19-7.61a7.38,7.38,0,0,1,7.67-7.58c4.33,0,7.49,3,7.49,7.67C201.71,112.24,201.69,112.66,201.66,113ZM190,110.69h8.42a4,4,0,0,0-4.19-3.61A4.11,4.11,0,0,0,190,110.69Z"/><path class="cls-2" d="M79.78,126.32H77.16v-1.24h6.69v1.24H81.24V133H79.78Z"/><path class="cls-2" d="M89.54,129.44V133H88.21v-.73a2.13,2.13,0,0,1-1.89.81c-1.38,0-2.24-.75-2.24-1.8s.67-1.79,2.5-1.79h1.55v-.09c0-.82-.5-1.31-1.5-1.31a3,3,0,0,0-1.82.6l-.55-1a4.18,4.18,0,0,1,2.54-.75C88.53,126.88,89.54,127.7,89.54,129.44Zm-1.41,1.64v-.7H86.68c-1,0-1.22.36-1.22.8s.43.84,1.15.84A1.54,1.54,0,0,0,88.13,131.08Z"/><path class="cls-2" d="M96.85,127,94,133.45a2.34,2.34,0,0,1-2.32,1.78,2.48,2.48,0,0,1-1.61-.56l.56-1a1.52,1.52,0,0,0,1,.42c.49,0,.79-.24,1.06-.84l.1-.23-2.63-6h1.47l1.89,4.45L95.5,127Z"/><path class="cls-2" d="M97.73,124.61h1.41V133H97.73Z"/><path class="cls-2" d="M100.49,130a3.2,3.2,0,1,1,3.19,3.08A3,3,0,0,1,100.49,130Zm5,0a1.79,1.79,0,1,0-1.8,1.88A1.75,1.75,0,0,0,105.48,130Z"/><path class="cls-2" d="M111.72,126.88v1.34l-.32,0a1.64,1.64,0,0,0-1.75,1.86V133h-1.41v-6h1.34v.88A2.38,2.38,0,0,1,111.72,126.88Z"/><path class="cls-2" d="M115,131.94l.83-1a1.93,1.93,0,0,0,1.57.9c.81,0,1.22-.49,1.22-1.46v-4.07h-2.8v-1.23h4.27v5.23c0,1.85-.93,2.77-2.66,2.77A3,3,0,0,1,115,131.94Z"/><path class="cls-2" d="M121.51,130a3.21,3.21,0,1,1,3.2,3.08A3,3,0,0,1,121.51,130Zm5,0a1.79,1.79,0,1,0-1.79,1.88A1.75,1.75,0,0,0,126.5,130Z"/><path class="cls-2" d="M135.19,129.52V133h-1.41V129.7c0-1.07-.53-1.59-1.43-1.59a1.59,1.59,0,0,0-1.67,1.81v3h-1.41v-8.35h1.41v3a2.66,2.66,0,0,1,2-.77A2.35,2.35,0,0,1,135.19,129.52Z"/><path class="cls-2" d="M142.9,129.52V133h-1.41V129.7c0-1.07-.53-1.59-1.43-1.59a1.59,1.59,0,0,0-1.67,1.81v3H137v-6h1.34v.78a2.61,2.61,0,0,1,2.07-.85A2.35,2.35,0,0,1,142.9,129.52Z"/><path class="cls-2" d="M144,132.37l.54-1.07a4,4,0,0,0,2.1.59c.89,0,1.26-.24,1.26-.66,0-1.15-3.72-.07-3.72-2.47,0-1.13,1-1.88,2.65-1.88a4.73,4.73,0,0,1,2.25.52l-.54,1.07a3.26,3.26,0,0,0-1.72-.45c-.86,0-1.26.28-1.26.68,0,1.21,3.71.13,3.71,2.48,0,1.13-1,1.86-2.72,1.86A4.8,4.8,0,0,1,144,132.37Z"/><path class="cls-2" d="M150,130a3.21,3.21,0,1,1,3.2,3.08A3,3,0,0,1,150,130Zm5,0a1.79,1.79,0,1,0-1.79,1.88A1.75,1.75,0,0,0,155,130Z"/><path class="cls-2" d="M163.67,129.52V133h-1.41V129.7c0-1.07-.53-1.59-1.43-1.59a1.6,1.6,0,0,0-1.68,1.81v3h-1.4v-6h1.34v.78a2.61,2.61,0,0,1,2.07-.85A2.35,2.35,0,0,1,163.67,129.52Z"/><path class="cls-3" d="M70,67.85a7.16,7.16,0,1,1,7.16-7.15A7.16,7.16,0,0,1,70,67.85Zm0-13.31a6.16,6.16,0,1,0,6.16,6.16A6.16,6.16,0,0,0,70,54.54Z"/><circle class="cls-3" cx="194.52" cy="81.57" r="6.66"/><path class="cls-3" d="M177.59,195.06a7.16,7.16,0,1,1,7.16-7.16A7.17,7.17,0,0,1,177.59,195.06Zm0-13.31a6.16,6.16,0,1,0,6.16,6.15A6.17,6.17,0,0,0,177.59,181.75Z"/><path class="cls-3" d="M68.69,36.42A2.68,2.68,0,1,1,66,33.74,2.68,2.68,0,0,1,68.69,36.42Z"/><path class="cls-3" d="M80.64,177.38A2.69,2.69,0,1,1,78,174.7,2.68,2.68,0,0,1,80.64,177.38Z"/><polygon class="cls-3" points="103.47 43.58 99.34 39.45 104.98 37.94 110.62 36.43 109.11 42.06 107.6 47.7 103.47 43.58"/><polygon class="cls-3" points="138.91 181.58 133.42 183.58 134.44 177.83 135.45 172.08 139.92 175.83 144.39 179.58 138.91 181.58"/><rect class="cls-3" x="29.79" y="75.4" width="7.19" height="7.19"/><path class="cls-3" d="M106.27,210.49,93.51,197.73,106.27,185,119,197.73ZM94.92,197.73l11.35,11.35,11.34-11.35-11.34-11.34Z"/><path class="cls-2" d="M195.81,150.3l.34,0,1.07,0v.09c-6.49.12-38.1.21-76.09.21l-54.82-.07L49.7,150.4l-4.52,0-1.17,0a2,2,0,0,1-.4,0,3,3,0,0,1,.4,0l1.17,0,4.52-.05,16.61-.08,54.82-.08c38,0,69.6.09,76.09.22v.09l-1.07,0A1.44,1.44,0,0,1,195.81,150.3Z"/><path class="cls-2" d="M168.66,159.42l.22,0,.69,0v.09c-4.16.12-24.39.21-48.7.21l-35.08-.07-10.63-.09-2.89-.05-.75,0a.79.79,0,0,1-.25,0,.67.67,0,0,1,.25,0l.75,0,2.89-.05,10.63-.08,35.08-.08c24.31,0,44.54.09,48.7.21v.1l-.69,0C168.73,159.44,168.66,159.43,168.66,159.42Z"/></g><g id="Character_4" data-name="Character 4"><path class="cls-2" d="M233.67,49.82c3.14-1.21,6.69,1.42,9.94.54,2-.54,3.36-2.25,5.07-3.37a10.29,10.29,0,0,1,9.11-1c2.82,1.18,4.68,2.53,5.27,5.53,2.37-1.6,6.72,1.21,8.34,4.11s1.5,6,.93,9.31a43.8,43.8,0,0,1-6.12,15.93c-.27.43-.71.91-1.19.73a1.13,1.13,0,0,1-.54-.85,37,37,0,0,1-.49-8.93,22.23,22.23,0,0,0-1.2-8.82c-1.14-2.76-3.54-5.19-6.51-5.55a9.48,9.48,0,0,0-6.23,1.81c-1.84,1.22-3.42,2.78-5.16,4.14a12.15,12.15,0,0,1-5.91,2.8,5.78,5.78,0,0,1-5.71-2.53c-1.08-1.93-.24-4.84,1.88-5.45a4.34,4.34,0,0,1-1.48-8.39Z"/><path class="cls-4" d="M267.78,66.17,267,99.68c-.13,5.7-5.74,10.52-11.42,10.1h0c-5.31-.38-8.64-5.26-8.52-10.58.07-2.52.11-4.62.1-4.88,0,0-8.51-1-8.93-9.46-.2-4.08.06-12.54.39-20.18A15.78,15.78,0,0,1,253.8,49.61l.81,0C263.43,49.76,268.2,57.36,267.78,66.17Z"/><path class="cls-5" d="M247.14,94.2a19.74,19.74,0,0,0,10.92-3.55s-2.38,6.19-10.86,5.74Z"/><path class="cls-2" d="M241.91,71a1.22,1.22,0,0,0,1.22,1.18,1.16,1.16,0,0,0,1.2-1.14,1.2,1.2,0,0,0-1.21-1.17A1.15,1.15,0,0,0,241.91,71Z"/><path class="cls-2" d="M240.59,68.76c.16.16,1-.56,2.35-.6s2.28.57,2.41.4-.09-.35-.52-.63a3.25,3.25,0,0,0-1.94-.52,3.15,3.15,0,0,0-1.86.68C240.64,68.41,240.52,68.7,240.59,68.76Z"/><path class="cls-2" d="M254.37,71a1.21,1.21,0,0,0,1.21,1.18,1.16,1.16,0,0,0,1.21-1.14,1.21,1.21,0,0,0-1.21-1.17A1.15,1.15,0,0,0,254.37,71Z"/><path class="cls-2" d="M253.38,68.53c.16.15,1.05-.56,2.35-.6s2.28.56,2.41.4-.09-.35-.52-.64a3.39,3.39,0,0,0-1.94-.52,3.22,3.22,0,0,0-1.86.68C253.43,68.17,253.31,68.46,253.38,68.53Z"/><path class="cls-2" d="M249,78.35a8,8,0,0,0-2.13-.3c-.33,0-.65-.08-.71-.3a1.66,1.66,0,0,1,.18-1l.89-2.56a44.4,44.4,0,0,0,2-6.7,43.13,43.13,0,0,0-2.5,6.53c-.29.9-.57,1.75-.84,2.57a2,2,0,0,0-.13,1.31.83.83,0,0,0,.57.47,2.4,2.4,0,0,0,.57.06A8.75,8.75,0,0,0,249,78.35Z"/><path class="cls-2" d="M252.86,63.45c.14.35,1.43.13,3,.26s2.79.49,3,.17c.08-.16-.15-.48-.66-.8a5.14,5.14,0,0,0-4.52-.33C253.07,63,252.8,63.28,252.86,63.45Z"/><path class="cls-2" d="M240.93,65c.24.29,1.13,0,2.2-.1s2,.12,2.2-.2c.08-.15-.07-.44-.48-.71a3.08,3.08,0,0,0-1.81-.41,3,3,0,0,0-1.73.66C240.94,64.53,240.83,64.84,240.93,65Z"/><path class="cls-4" d="M267.32,72.46c.14-.06,5.75-1.93,5.78,3.86s-5.79,4.63-5.8,4.46S267.32,72.46,267.32,72.46Z"/><path class="cls-5" d="M269.06,78.58s.1.07.27.14a1,1,0,0,0,.75,0,2.51,2.51,0,0,0,1.14-2.25,3.17,3.17,0,0,0-.29-1.44,1.12,1.12,0,0,0-.76-.77.5.5,0,0,0-.59.28c-.08.16,0,.27-.07.28s-.13-.09-.08-.33a.67.67,0,0,1,.22-.37.81.81,0,0,1,.56-.15,1.42,1.42,0,0,1,1.06.9,3.47,3.47,0,0,1,.36,1.61A2.61,2.61,0,0,1,270.17,79a1.08,1.08,0,0,1-.92-.15C269.07,78.72,269,78.59,269.06,78.58Z"/><path class="cls-2" d="M236.76,63a12.26,12.26,0,0,0,10.77-2.85c2-1.82,3.49-4.39,6-5.28a6.86,6.86,0,0,1,5.28.52A13.34,13.34,0,0,1,263,58.89c-1.48,4.37-.2,9.12,1.08,13.55a2.32,2.32,0,0,0,.73,1.31,1.83,1.83,0,0,0,2.28-.6,7.09,7.09,0,0,0,1.43-3.83,23.71,23.71,0,0,0-.41-9.38,16.2,16.2,0,0,0-4.75-8,15.42,15.42,0,0,0-10.92-3.67,18.85,18.85,0,0,0-10.78,4.32,11,11,0,0,0-3.4,4.22"/><path class="cls-6" d="M231.32,52a1.2,1.2,0,0,0,.07.5,2.4,2.4,0,0,0,.85,1.17,3.72,3.72,0,0,0,2.19.64,6.05,6.05,0,0,0,1.43-.15,3,3,0,0,0,1.45-.73,2,2,0,0,0,.66-1.66,1.8,1.8,0,0,0-1.28-1.44,2.46,2.46,0,0,0-1.05-.09,1.94,1.94,0,0,0-1,.48,2.64,2.64,0,0,0-.79,2.06,3.11,3.11,0,0,0,1,2.09A4.73,4.73,0,0,0,237,55.93a7.67,7.67,0,0,0,4.93-.72,22.19,22.19,0,0,0,4.18-2.74,26.85,26.85,0,0,1,3.79-2.62,8.59,8.59,0,0,1,3.93-1.12,8.41,8.41,0,0,1,3.5.76,10.31,10.31,0,0,1,4,3.35c.36.5.61.91.78,1.2a2.64,2.64,0,0,0,.26.43l-.05-.12-.16-.34a12.6,12.6,0,0,0-.74-1.24,10.18,10.18,0,0,0-4-3.46,8.42,8.42,0,0,0-3.58-.82,8.9,8.9,0,0,0-4.06,1.12A27.9,27.9,0,0,0,246,52.25a22.61,22.61,0,0,1-4.13,2.7,7.41,7.41,0,0,1-4.74.7,4.38,4.38,0,0,1-2-1,2.77,2.77,0,0,1-.91-1.9,2.38,2.38,0,0,1,.69-1.86,1.74,1.74,0,0,1,1.78-.35,1.57,1.57,0,0,1,1.13,1.23,1.82,1.82,0,0,1-.58,1.49,2.9,2.9,0,0,1-1.35.71,6.9,6.9,0,0,1-1.39.16,3.75,3.75,0,0,1-2.12-.57,2.45,2.45,0,0,1-.87-1.1A4.35,4.35,0,0,1,231.32,52Z"/><path class="cls-6" d="M272.62,60.57a10.17,10.17,0,0,1-1.75.52,5,5,0,0,1-1.95-.13,8.37,8.37,0,0,1-2.2-1A6.73,6.73,0,0,1,264,56.65a12.8,12.8,0,0,1-.45-1.78,1.4,1.4,0,0,0,0,.5,5.56,5.56,0,0,0,.27,1.35,6.6,6.6,0,0,0,2.74,3.52,8.38,8.38,0,0,0,2.3,1,4.93,4.93,0,0,0,2,.07,4.28,4.28,0,0,0,1.3-.45A1.65,1.65,0,0,0,272.62,60.57Z"/><path class="cls-6" d="M272.52,64.76c0-.05-.68.13-1.77.1a7.93,7.93,0,0,1-6.92-4.21c-.52-1-.67-1.63-.72-1.62a1.23,1.23,0,0,0,.08.48,7.43,7.43,0,0,0,.46,1.24,7.83,7.83,0,0,0,2.92,3.2,7.74,7.74,0,0,0,4.18,1.12,7,7,0,0,0,1.31-.16C272.37,64.84,272.53,64.78,272.52,64.76Z"/><path class="cls-5" d="M257.91,73.9a.16.16,0,0,0,.17-.14.15.15,0,0,0-.12-.17.15.15,0,0,0-.17.13A.16.16,0,0,0,257.91,73.9Z"/><path class="cls-5" d="M255.41,73.43c.07,0,.15-.06.17-.16a.15.15,0,1,0-.29,0A.19.19,0,0,0,255.41,73.43Z"/><path class="cls-5" d="M253.73,73.45c.08,0,.15-.1.16-.22s0-.24-.12-.25-.15.09-.16.22S253.65,73.44,253.73,73.45Z"/><path class="cls-5" d="M256.75,75.5c.08,0,.14,0,.14-.1s-.07-.09-.15-.08-.14,0-.14.09S256.67,75.5,256.75,75.5Z"/><path class="cls-5" d="M254.45,75.06a.16.16,0,0,0,.15-.16.15.15,0,0,0-.13-.17.17.17,0,0,0-.16.16A.16.16,0,0,0,254.45,75.06Z"/><path class="cls-5" d="M242.54,74.09a.16.16,0,0,0,.17-.14.15.15,0,0,0-.12-.18.15.15,0,0,0-.17.13A.17.17,0,0,0,242.54,74.09Z"/><path class="cls-5" d="M240.84,74c.08,0,.15-.07.16-.17a.18.18,0,0,0-.14-.19c-.08,0-.14.07-.15.17S240.76,74,240.84,74Z"/><path class="cls-5" d="M244,74.07a.13.13,0,0,0,.16-.1.14.14,0,0,0-.28,0A.13.13,0,0,0,244,74.07Z"/><path class="cls-5" d="M242.85,75.81a.15.15,0,0,0,.19-.1.15.15,0,1,0-.27-.11A.16.16,0,0,0,242.85,75.81Z"/><path class="cls-5" d="M241.39,75.58a.15.15,0,0,0,.1-.16.14.14,0,0,0-.27.08A.13.13,0,0,0,241.39,75.58Z"/><path class="cls-5" d="M248.45,82.33c1.62,5.29,6.35.56,3.46-1.55a24.84,24.84,0,0,0-3.66,1.36"/><path class="cls-2" d="M249.63,84.77c1.72.4,4.05-1.61,2.56-3.67-.71-.21-2.15.83-2.88,1-2.07.78-2.14.61-.15-.34.9-.31,2.05-1.25,3.12-1.2C254.64,82.23,251.93,86.22,249.63,84.77Z"/><polygon class="cls-7" points="246.92 98.06 254.09 105.3 266.87 97.26 270.61 103.94 264.27 179.04 238.19 179.26 239.92 110.5 246.92 98.06"/><path class="cls-3" d="M205.57,179.26l-1.5-16.13L219,111.38,223.84,130s3.1,32.64,3.1,33.31-3.77,6.89-3.77,6.89l1.16,9Z"/><path class="cls-3" d="M247.39,97.67l-8,6.38L219,111.38l3.93,20.87,3.6,32.15.57,14.86h16.46l1.2-27s-3-38.65-1.47-45.76Z"/><path class="cls-3" d="M266.87,97.26l7.6,5.24,9.77,4.22s10.54,2.31,10.09,3-3.42,37.22-3.42,37.22l1,32.34H257.37V164.68l10.72-56.62Z"/><path class="cls-3" d="M294.05,109.7c1.46.39,9.85,15.9,9.85,15.9l8.06,6.69,4.65-8.61,11.08.14,1.23,14.49s-6.57,14.22-9.16,15.72-10.8-1.5-14.9-3-15.37-14.89-15.37-14.89Z"/><path class="cls-2" d="M223.09,170.36a18,18,0,0,1-1.62-2,21.48,21.48,0,0,0-4.37-4.29,11.7,11.7,0,0,0-5.63-2.12,24.59,24.59,0,0,0-2.55.05s.22-.13.66-.24a7.36,7.36,0,0,1,1.91-.18,11.06,11.06,0,0,1,5.91,2.06,18.45,18.45,0,0,1,4.36,4.5A9.63,9.63,0,0,1,223.09,170.36Z"/><path class="cls-2" d="M224.2,165.34a24.54,24.54,0,0,0-4.67-4.1,25.29,25.29,0,0,0-5.77-2.34,4.87,4.87,0,0,1,1.86.18,13.69,13.69,0,0,1,4.18,1.71,14.08,14.08,0,0,1,3.41,3A4.63,4.63,0,0,1,224.2,165.34Z"/><path class="cls-2" d="M243.61,167a4.84,4.84,0,0,1-.4-.62c-.24-.41-.6-1-1-1.81-.88-1.59-2.12-3.91-3.47-6.87a81.64,81.64,0,0,1-4-10.67,63,63,0,0,1-2.48-13.75,134.53,134.53,0,0,1-.06-15.13q.08-1.73.15-3.33a10.87,10.87,0,0,1,.45-3.13,4.24,4.24,0,0,1,.72-1.34,3.58,3.58,0,0,1,1.18-.88,2.45,2.45,0,0,1,2.62.23l-.2.28-1.66-1.07-.13-.08.08-.12a13.94,13.94,0,0,1,1.92-2.23c.6-.6,1.12-1.11,1.52-1.53s.7-.77.89-1,.27-.37.29-.36a1.63,1.63,0,0,1-.23.41,9.13,9.13,0,0,1-.83,1.07c-.38.44-.89,1-1.47,1.58a14.84,14.84,0,0,0-1.83,2.22l-.05-.21,1.68,1-.2.27a2.09,2.09,0,0,0-2.24-.14,2.93,2.93,0,0,0-1,.79,4,4,0,0,0-.64,1.22,11,11,0,0,0-.4,3q-.06,1.62-.12,3.33a141.78,141.78,0,0,0,.11,15.08,71.83,71.83,0,0,0,6.33,24.31c1.3,3,2.48,5.31,3.31,6.92l.94,1.86A4.3,4.3,0,0,1,243.61,167Z"/><path class="cls-2" d="M258.27,167.56a3.5,3.5,0,0,1,.25-.7l.82-2c.72-1.7,1.74-4.17,3-7.23,2.41-6.13,5.46-14.71,8.47-24.3,1.81-5.74,3.45-11.17,4.88-15.95l1-3.45a11,11,0,0,0,.6-3.19c.1-2-1.59-3.78-3.15-3.5l0-.31,2.46-.2-.11.1a3.51,3.51,0,0,0-.94-3.14,5.93,5.93,0,0,0-1-.73,2.44,2.44,0,0,1,1,.63,3.63,3.63,0,0,1,1.1,3.29l0,.09h-.09l-2.46.26,0-.31c1.82-.34,3.67,1.61,3.6,3.81a11.42,11.42,0,0,1-.58,3.31c-.33,1.11-.66,2.27-1,3.46-1.4,4.79-3,10.23-4.83,16-3,9.61-6.12,18.18-8.63,24.29-1.25,3.05-2.33,5.49-3.1,7.17l-.91,1.92A5.8,5.8,0,0,1,258.27,167.56Z"/><path class="cls-2" d="M263.94,171.94a12,12,0,0,1-4.91.45,6.23,6.23,0,0,1,2.43-.49A6,6,0,0,1,263.94,171.94Z"/><path class="cls-2" d="M241.2,170.81c0,.08-.49.09-.88.65a1.3,1.3,0,0,0-.2,1,1.06,1.06,0,0,0,1,.73,1.08,1.08,0,0,0,1.1-.48,1.32,1.32,0,0,0,.06-1.06c-.24-.64-.73-.77-.7-.85s.62-.07,1,.7a1.63,1.63,0,0,1,0,1.44,1.64,1.64,0,0,1-3-.37,1.62,1.62,0,0,1,.38-1.38C240.62,170.59,241.24,170.75,241.2,170.81Z"/><path class="cls-2" d="M285.25,138a50.43,50.43,0,0,1-6.93,2.06,50.41,50.41,0,0,1-7.07,1.56,48.72,48.72,0,0,1,6.94-2.06A50.45,50.45,0,0,1,285.25,138Z"/><path class="cls-2" d="M290.3,137.09a3.46,3.46,0,0,1-.4-1,17.84,17.84,0,0,1-.55-2.95,56.59,56.59,0,0,1-.06-9.86,28,28,0,0,1,.7-5.41,17.58,17.58,0,0,1,1.57-4.17,12.77,12.77,0,0,1,1.7-2.48,3.6,3.6,0,0,1,.79-.77,27.55,27.55,0,0,0-2.16,3.41,19.31,19.31,0,0,0-1.44,4.12,30.51,30.51,0,0,0-.64,5.33,70.7,70.7,0,0,0-.09,9.79C289.89,135.58,290.38,137.06,290.3,137.09Z"/><path class="cls-2" d="M303,125.94a11.07,11.07,0,0,0-7.59,5.64,3,3,0,0,1,.5-1.4,8.27,8.27,0,0,1,2.35-2.69,8.52,8.52,0,0,1,3.26-1.48A3,3,0,0,1,303,125.94Z"/><path class="cls-2" d="M305.15,146.24a14.46,14.46,0,0,1,.89-2.72c.64-1.65,1.59-3.9,2.78-6.32s2.39-4.56,3.31-6.07a13.53,13.53,0,0,1,1.61-2.37,17.7,17.7,0,0,1-1.29,2.55c-.83,1.56-2,3.71-3.16,6.12s-2.19,4.62-2.91,6.23A18,18,0,0,1,305.15,146.24Z"/><path class="cls-2" d="M301.83,144.44a8.87,8.87,0,0,1,.52-2.35,17.73,17.73,0,0,1,2.55-5.23,13.09,13.09,0,0,1,4.43-3.78,7,7,0,0,1,2.25-.86c0,.08-.81.43-2.07,1.18a14.45,14.45,0,0,0-4.19,3.77,21.1,21.1,0,0,0-2.62,5A15.27,15.27,0,0,1,301.83,144.44Z"/><path class="cls-2" d="M320.91,147.79s-.19.17-.62.25a3,3,0,0,1-1.82-.28,5.24,5.24,0,0,1-2-1.86A14.79,14.79,0,0,1,315,143a15.14,15.14,0,0,1-.94-5.85,6.41,6.41,0,0,1,.41-2.41c.08,0-.07.93,0,2.42a16.89,16.89,0,0,0,1.06,5.65c.81,2.08,1.87,4,3.14,4.64A3.55,3.55,0,0,0,320.91,147.79Z"/><path class="cls-3" d="M257.52,110.5s-.4-3.8-2.18-4-5.22.12-5.34,4l1.78,2.84s-3.32,8.07-4,10.68-2.84,53.16-2.84,53.16l5.58,11.46,6-11.64,1-54.55-2.3-8.63Z"/><path class="cls-2" d="M267.78,108s-.17.28-.56.7-1,1-1.72,1.71a49.72,49.72,0,0,1-6.33,5l-.38.25,0-.45,0-.23a24.54,24.54,0,0,0-.5-4.42,7.29,7.29,0,0,0-1.51-3.2,8.84,8.84,0,0,0-2.65-2,2.28,2.28,0,0,1,.89.26,6.26,6.26,0,0,1,2,1.48,7.35,7.35,0,0,1,1.71,3.33,23.18,23.18,0,0,1,.55,4.5l0,.23-.41-.2a67.51,67.51,0,0,0,6.37-4.81C266.81,108.76,267.73,107.9,267.78,108Z"/><path class="cls-2" d="M254,105.29c0,.09-1,.43-2.26,1.47a10.92,10.92,0,0,0-3.56,5.25c-.11.38-.19.77-.26,1.13l-.1.55-.35-.42c-1.47-1.76-2.76-3.33-3.67-4.47a10.63,10.63,0,0,1-1.37-1.9,11.65,11.65,0,0,1,1.64,1.68c1,1.08,2.31,2.61,3.79,4.36l-.45.12a12,12,0,0,1,.27-1.2,10.46,10.46,0,0,1,3.83-5.39,8.24,8.24,0,0,1,1.77-1A1.94,1.94,0,0,1,254,105.29Z"/><path class="cls-2" d="M254.94,112.85c0,.15-.75.28-1.69.3s-1.71-.09-1.71-.23.76-.27,1.7-.29S254.94,112.71,254.94,112.85Z"/><path class="cls-2" d="M256.58,107.8a7.72,7.72,0,0,1-2.24,2.65,7.62,7.62,0,0,1-3,1.83,24.43,24.43,0,0,1,2.61-2.22A24.1,24.1,0,0,1,256.58,107.8Z"/><path class="cls-2" d="M252,120.32a15,15,0,0,1,.27-3.89,15.09,15.09,0,0,1,.78-3.83,14.27,14.27,0,0,1-.26,3.9A14.69,14.69,0,0,1,252,120.32Z"/><path class="cls-2" d="M253.37,127.16a51.06,51.06,0,0,1,0-7.14,50.46,50.46,0,0,1,.49-7.12,47.63,47.63,0,0,1,0,7.14A47,47,0,0,1,253.37,127.16Z"/><g class="cls-8"><path d="M257.52,110.5s-.4-3.8-2.18-4-5.22.12-5.34,4l1.78,2.84s-3.32,8.07-4,10.68-2.84,53.16-2.84,53.16l5.58,11.46,6-11.64,1-54.55-2.3-8.63Z"/></g><path class="cls-2" d="M227.08,179.26a2.84,2.84,0,0,1-.06-.65c0-.47-.05-1.08-.08-1.84-.05-1.6-.16-3.91-.31-6.77-.3-5.71-.9-13.59-1.9-22.27s-2.18-16.49-3.08-22.14c-.45-2.78-.82-5-1.09-6.7-.12-.74-.21-1.35-.28-1.82a4.24,4.24,0,0,1-.07-.64,2.59,2.59,0,0,1,.17.62c.1.47.22,1.07.38,1.81.32,1.57.75,3.84,1.25,6.66,1,5.64,2.23,13.47,3.24,22.15S226.8,164.26,227,170c.11,2.87.15,5.19.14,6.79,0,.75,0,1.37,0,1.84A3,3,0,0,1,227.08,179.26Z"/><g class="cls-8"><path d="M232.51,114.71c-.92,9-1.84,18.09-1.11,27.12s3.21,18.12,8.52,25.46a4.25,4.25,0,0,0,1.29,1.31,1.55,1.55,0,0,0,1.73-.06c.81-.69.34-2-.17-2.94a87.9,87.9,0,0,1-10.26-50.89"/></g><g class="cls-8"><path d="M258.6,166.93c-.13,1,1.12,1.75,2.11,1.52a4.37,4.37,0,0,0,2.33-1.86c5-6.48,7.84-14.37,9.4-22.39s1.86-14.61,2.16-22.77c-4,16.58-11.48,37.47-16.48,46.46"/></g><g class="cls-8"><path d="M289.35,126.56s-.36,10.73,2.35,12.49l-.81,8s.13,7.12.27,9.61a32.9,32.9,0,0,1-3.28-14.47,99.28,99.28,0,0,1,1.23-14.9"/></g><g class="cls-8"><path d="M316.07,124.68a9.27,9.27,0,0,0,4.23,5.8,5,5,0,0,0,2.2.71,4.68,4.68,0,0,0,4-2.54,12.54,12.54,0,0,0,1.15-4.83l-11.08-.14Z"/></g><g class="cls-8"><path d="M223,170.43a14.16,14.16,0,0,0-14.22-7.83,3.29,3.29,0,0,1-1.25,0,1,1,0,0,1-.74-.91,1.28,1.28,0,0,1,.5-.76c2.79-2.4,7.25-2.23,10.26-.1a13.41,13.41,0,0,1,5.45,9.59"/></g><g class="cls-8"><path d="M311.45,132.27a17.64,17.64,0,0,0-11.62,10.51c-.21.55-.37,1.26.05,1.69a1.17,1.17,0,0,0,1.57-.15,3.79,3.79,0,0,0,.76-1.56,17.54,17.54,0,0,1,9.3-10.27"/></g><path class="cls-4" d="M316.86,126.8l.18-6.52a1.58,1.58,0,0,1,.13-.56l1.47-3.53s-6-6.83-6.31-7.67-.12-1.73,1.36-1.11,6.31,5.07,6.31,5.07l1.85-3.29s-4.33-4.62-4.76-5.12-.18-3.09,1.43-2.22a51.48,51.48,0,0,1,5.68,4.57l1.12-1.11-3.22-5s-1.11-1.73.25-2.22,2,.49,3,1.61a36,36,0,0,1,2.51,3.52l1-.08,1.47-.35-.11-1.72s-2-2.86-2.32-3.5-1.11-1.76,0-2.25,1.84-.59,2.43.42a6.29,6.29,0,0,0,1.22,1.3,8.47,8.47,0,0,1,2-1.35c.88-.27,1.92.74.89,3.56-.17.47-1.17,5.66-1.17,5.66l-.25,2.72-1.18,2.43-5.32,9.29.2,6.35a6.38,6.38,0,0,1-1,4.06,3.7,3.7,0,0,1-4.12,1.21A8.21,8.21,0,0,1,316.86,126.8Z"/><path class="cls-5" d="M326.38,111.79a11,11,0,0,1-.37-1.42l-.42-1.52c-.07-.29-.16-.59-.23-.92a1,1,0,0,1,0-.15.48.48,0,0,1,0-.13l0,0a.25.25,0,0,1,.23-.13.31.31,0,0,1,.18.07h0l0,.05,0,.06,0,.08s0,0,0,.16v0a.3.3,0,0,1-.17.2.28.28,0,0,1-.21,0h0l-.06-.06,0,0,0,0-.05-.1a4.4,4.4,0,0,0-.26-.39,22.79,22.79,0,0,0-2.53-2.38c-.68-.58-1.09-1-1-1s.52.23,1.27.74a14.18,14.18,0,0,1,2.7,2.35,3.7,3.7,0,0,1,.31.46l.06.12h0l-.14.09s0,.07-.09.06c-.33,0-.2,0-.23,0l0,0h0l.14-.07c.05,0,.08-.06.1,0s.06,0,.18,0,0,0,.06,0v.08l.2.9c.13.59.25,1.12.31,1.57A2.79,2.79,0,0,1,326.38,111.79Z"/><path class="cls-5" d="M329.3,108.52a11.06,11.06,0,0,0-.43-3.13c-.61-1.63-1.64-2.72-1.5-2.83a4.91,4.91,0,0,1,2,2.65,5,5,0,0,1,.28,2.38C329.55,108.2,329.35,108.53,329.3,108.52Z"/><path class="cls-5" d="M320.64,118.49a12,12,0,0,1-2.48-2.46,12.27,12.27,0,0,1-2.09-2.81,23.35,23.35,0,0,1,4.57,5.27Z"/><path class="cls-5" d="M322.83,115.38a10.28,10.28,0,0,1-2.49-2.06,10,10,0,0,1-2.12-2.44,10.54,10.54,0,0,1,2.49,2.07A10,10,0,0,1,322.83,115.38Z"/><path class="cls-5" d="M319,124.5s-.56-.14-1.14-.81a4.72,4.72,0,0,1-1.11-3.21,4.43,4.43,0,0,1,.5-1.84c.27-.52.56-.93.76-1.29.43-.7.47-1.22.55-1.22s.15.58-.22,1.39a7.53,7.53,0,0,0-1.07,3,4.94,4.94,0,0,0,.88,3C318.6,124.14,319.05,124.43,319,124.5Z"/><path class="cls-5" d="M326.43,119.4a27.7,27.7,0,0,1-2.15,4,6.26,6.26,0,0,1-1.11,1.44,4,4,0,0,1-1.28.8c-.83.29-1.38.14-1.36.09s.51-.08,1.21-.43a5.17,5.17,0,0,0,2.1-2.17C325.09,121,326.29,119.3,326.43,119.4Z"/><path class="cls-5" d="M330.15,104.05a9.12,9.12,0,0,1-.24-2.7l0,.14c-.25-.34-.51-.74-.76-1.16-.57-1-1-1.91-1.33-2.56s-.55-1-.49-1.09.38.29.8.91.92,1.51,1.47,2.47c.24.42.48.81.71,1.15l0,.07v.07A9.3,9.3,0,0,1,330.15,104.05Z"/><path class="cls-5" d="M332.78,108s.08-.4.13-1.09.07-1.67,0-2.83v0c.15-.85.31-1.74.48-2.68l0-.2v0a3.64,3.64,0,0,0-1-2.08c-.41-.59-.81-1.15-1.19-1.68a6.78,6.78,0,0,1-1-1.62,7,7,0,0,1,1.27,1.4c.41.52.84,1,1.28,1.62a8.51,8.51,0,0,1,.73,1,2.45,2.45,0,0,1,.4,1.39h0v0l0,.2c-.18.94-.36,1.83-.52,2.67v0a15.46,15.46,0,0,1-.23,2.88C333.06,107.63,332.83,108,332.78,108Z"/><path class="cls-5" d="M322.3,113.34a19.15,19.15,0,0,1-.09-2.12c-.11-1.15-.5-2-.37-2.1s.76.77.89,2A2.77,2.77,0,0,1,322.3,113.34Z"/><path class="cls-5" d="M326.26,109.7a18.65,18.65,0,0,1-.51-2.21,18.35,18.35,0,0,1-.7-2.16c.11-.09.85.73,1.2,2A3.21,3.21,0,0,1,326.26,109.7Z"/><rect class="cls-2" x="199.13" y="179.26" width="139.2" height="194.14"/><path class="cls-2" d="M178.18,180.91a68,68,0,0,1,13.24-44.27l.6.45a67.21,67.21,0,0,0-13.09,43.77Z"/><rect class="cls-2" x="189.29" y="130.25" width="5.81" height="12.44" rx="2.82" transform="translate(115.85 -86.54) rotate(35.73)"/><rect class="cls-6" x="168.71" y="179.26" width="139.2" height="194.14"/><path class="cls-2" d="M208.34,179.29s0,.18-.13.53-.26.9-.43,1.52c-.09.33-.2.7-.31,1.09s-.3.81-.47,1.27a29.79,29.79,0,0,1-1.26,3.05c-.26.56-.54,1.14-.83,1.74s-.66,1.18-1,1.81a41.57,41.57,0,0,1-2.49,3.86,45.74,45.74,0,0,1-15.8,13.67,42,42,0,0,1-4.18,1.91c-.67.26-1.31.55-1.94.75l-1.84.57a32.69,32.69,0,0,1-3.2.81c-.48.1-.92.21-1.33.28l-1.13.15-1.56.2-.54.06.54-.1,1.55-.24,1.13-.17c.4-.08.84-.19,1.31-.3a29.78,29.78,0,0,0,3.19-.83l1.82-.58c.64-.21,1.27-.5,1.93-.76a44.32,44.32,0,0,0,4.16-1.92,50.36,50.36,0,0,0,8.64-5.91,51.31,51.31,0,0,0,7.1-7.7c.91-1.33,1.81-2.57,2.5-3.83.35-.63.73-1.21,1-1.81l.84-1.72a29.16,29.16,0,0,0,1.28-3c.18-.45.35-.87.49-1.26l.33-1.09c.18-.61.34-1.1.46-1.5S208.34,179.29,208.34,179.29Z"/><path class="cls-2" d="M194.26,179.73s0,.13,0,.4l-.18,1.14a14.11,14.11,0,0,1-.37,1.8,22.92,22.92,0,0,1-.65,2.33c-.15.43-.3.88-.45,1.34s-.38.93-.58,1.42a33.59,33.59,0,0,1-1.47,3.05,39.12,39.12,0,0,1-4.44,6.33,38.46,38.46,0,0,1-5.74,5.2,31.38,31.38,0,0,1-2.84,1.83c-.46.26-.89.53-1.33.75l-1.28.61a20.92,20.92,0,0,1-2.23.94,13.26,13.26,0,0,1-1.74.59l-1.11.32-.39.1.38-.14,1.1-.36a13.19,13.19,0,0,0,1.71-.62,22.6,22.6,0,0,0,2.22-1l1.26-.62c.44-.22.87-.5,1.33-.76.92-.5,1.83-1.17,2.81-1.84a35.36,35.36,0,0,0,10.12-11.46,33.52,33.52,0,0,0,1.48-3c.2-.48.42-.94.59-1.4s.31-.91.46-1.33c.32-.84.49-1.64.68-2.32a15,15,0,0,0,.4-1.78c.08-.45.16-.82.22-1.14S194.26,179.73,194.26,179.73Z"/><path class="cls-2" d="M234,202.17a1.46,1.46,0,0,0-.62.38,1.63,1.63,0,0,0-.43.81,1.48,1.48,0,0,0,.27,1.24h0a26.06,26.06,0,0,0,5.37.45,9.22,9.22,0,0,0,3.56-.84,6.12,6.12,0,0,0,2.84-3.11,4.93,4.93,0,0,0,.39-2.3,3.56,3.56,0,0,0-1-2.21c-1.25-1.24-3.23-1.47-5.1-1.35a33.22,33.22,0,0,0-12,3.2,31.52,31.52,0,0,0-5.89,3.65,12.64,12.64,0,0,0-4.22,5.86,5.75,5.75,0,0,0,.09,3.71,5.89,5.89,0,0,0,2.42,2.94,14.66,14.66,0,0,0,7.79,1.69c5.48-.14,11.34-.89,16.61-3.6a21.76,21.76,0,0,0,6.95-5.55,15.9,15.9,0,0,0,3.62-8.28,13.46,13.46,0,0,0-2.69-10A14,14,0,0,0,243,184.1a27.24,27.24,0,0,0-10,.54c-1.58.42-3.14.89-4.68,1.33-1.5.59-3,1.13-4.44,1.73a88.57,88.57,0,0,0-15.35,9c-4.55,3.24-8.66,6.44-12.45,9.3s-7.3,5.37-10.44,7.46a92.66,92.66,0,0,1-8.38,4.85l-3.19,1.52c-.95.39-1.76.69-2.41.94l-2,.76,2-.8c.65-.26,1.46-.56,2.4-1l3.18-1.53a92.38,92.38,0,0,0,8.35-4.88c3.14-2.1,6.65-4.58,10.42-7.48s7.89-6.07,12.44-9.32a87.85,87.85,0,0,1,15.37-9c1.46-.61,2.95-1.15,4.45-1.74s3.11-.92,4.71-1.34a27.37,27.37,0,0,1,10-.55,14.2,14.2,0,0,1,9.08,4.79,13.68,13.68,0,0,1,2.72,10.18,16.07,16.07,0,0,1-3.66,8.39,22.15,22.15,0,0,1-7,5.61c-5.32,2.73-11.21,3.47-16.71,3.6a14.86,14.86,0,0,1-7.89-1.72,6.16,6.16,0,0,1-2.5-3,6.05,6.05,0,0,1-.09-3.83,12.82,12.82,0,0,1,4.29-5.94,31.14,31.14,0,0,1,5.93-3.66,33.11,33.11,0,0,1,12-3.2c1.89-.11,3.91.12,5.2,1.4a3.67,3.67,0,0,1,1.06,2.29,5.18,5.18,0,0,1-.4,2.36,6.21,6.21,0,0,1-2.9,3.14,9.38,9.38,0,0,1-3.61.85,26.18,26.18,0,0,1-5.37-.49h0a1.53,1.53,0,0,1-.27-1.28,1.76,1.76,0,0,1,.45-.82A1.25,1.25,0,0,1,234,202.17Z"/><path class="cls-2" d="M290.26,179.48l-1.33.57a18.91,18.91,0,0,0-3.55,2.14A22.13,22.13,0,0,0,281,187c-1.48,2.09-3,4.61-4.87,7.23s-3.88,5.53-6.1,8.61a69.22,69.22,0,0,1-7.79,9.28,44.38,44.38,0,0,1-5.07,4.18,49.66,49.66,0,0,1-5.9,3.47,60.51,60.51,0,0,1-13.59,4.66c-9.66,2.15-19.13,2.24-27.65,2.3s-16.23,0-22.66.56A30.38,30.38,0,0,0,173,232.05a24.66,24.66,0,0,0-3.25,2.56c-.69.66-1,1-1,1s.33-.37,1-1A24.87,24.87,0,0,1,173,232a30.22,30.22,0,0,1,14.37-4.81c6.44-.58,14.14-.58,22.68-.6s18-.17,27.6-2.31a60.49,60.49,0,0,0,13.55-4.65,47.1,47.1,0,0,0,5.87-3.45,43,43,0,0,0,5.05-4.14,69,69,0,0,0,7.79-9.25c2.22-3.07,4.21-6,6.12-8.6s3.41-5.12,4.9-7.21a21.65,21.65,0,0,1,4.44-4.83,18.72,18.72,0,0,1,3.58-2.12C289.79,179.65,290.26,179.48,290.26,179.48Z"/><path class="cls-2" d="M168.71,272.23s.14-.57.43-1.67c.13-.54.32-1.22.59-2s.54-1.69,1-2.68a34.62,34.62,0,0,1,3.64-6.91,35.21,35.21,0,0,1,7-7.61,55.28,55.28,0,0,1,24.46-10.7c5-1,10.29-1.48,15.77-2a146.23,146.23,0,0,0,16.89-2.34A45.68,45.68,0,0,0,254.16,230a51.1,51.1,0,0,0,11.63-10.7,139.75,139.75,0,0,0,8.36-11.69c2.47-3.77,4.73-7.31,6.93-10.45,1.1-1.57,2.15-3.06,3.23-4.42.53-.68,1-1.36,1.54-2l1.54-1.8c1-1.18,2-2.16,2.9-3.1.47-.45.89-.92,1.33-1.31l1.29-1.11c.83-.68,1.51-1.35,2.2-1.81l1.71-1.2,1.42-1-1.4,1-1.7,1.2c-.68.47-1.35,1.15-2.18,1.83l-1.28,1.11c-.44.4-.86.86-1.32,1.32-.9.94-1.92,1.93-2.88,3.11l-1.53,1.8c-.52.62-1,1.3-1.54,2-1.07,1.36-2.11,2.85-3.21,4.42-2.18,3.15-4.45,6.69-6.91,10.46a139.26,139.26,0,0,1-8.35,11.73,51.47,51.47,0,0,1-11.67,10.74,45.91,45.91,0,0,1-15.8,6.32,149,149,0,0,1-16.91,2.33c-5.48.54-10.78,1.06-15.76,2a55.44,55.44,0,0,0-24.4,10.64,35.2,35.2,0,0,0-10.63,14.43,26.85,26.85,0,0,0-1,2.67c-.28.78-.47,1.45-.61,2C168.88,271.66,168.71,272.23,168.71,272.23Z"/><path class="cls-2" d="M293.34,255.44a18.57,18.57,0,0,1-.27,2.6,11.81,11.81,0,0,1-.88,3,5,5,0,0,1-3.06,2.91,4.16,4.16,0,0,1-2.56-.06,6.42,6.42,0,0,1-2.39-1.53,11,11,0,0,1-1.88-2.48,10.1,10.1,0,0,1-.71-1.48c-.2-.53-.46-1-.62-1.6a30,30,0,0,1-.71-15.56,46.67,46.67,0,0,1,2.68-8.74,28.65,28.65,0,0,1,2.17-4.37,10,10,0,0,1,3.6-3.52,5,5,0,0,1,5.05.26,10.22,10.22,0,0,1,3.28,4.27,81.27,81.27,0,0,1,3.52,10.7,93.22,93.22,0,0,1,2.94,23.95c0,2.1-.1,4.21-.26,6.34a32.35,32.35,0,0,1-1.06,6.37,15.49,15.49,0,0,1-3,5.79,10.32,10.32,0,0,1-5.57,3.48,12.73,12.73,0,0,1-6.6-.37,19.94,19.94,0,0,1-5.8-3,55.3,55.3,0,0,1-4.92-4.18c-1.57-1.45-3.12-2.89-4.58-4.4-2.9-3-5.48-6.4-6.64-10.32a24.39,24.39,0,0,1-.1-11.76,55.46,55.46,0,0,1,1.42-5.54c.55-1.79,1.06-3.57,1.7-5.29.3-.86.61-1.71.9-2.56l1-2.49c.63-1.66,1.36-3.24,2.06-4.8a114,114,0,0,1,9.34-16.61,115.28,115.28,0,0,1,18.08-20.78c2.44-2.16,4.38-3.79,5.75-4.82l2.08-1.6s-.7.57-2,1.63-3.29,2.68-5.72,4.85a114.73,114.73,0,0,0-27.32,37.4c-.7,1.56-1.43,3.14-2.06,4.8-.32.82-.65,1.65-1,2.48s-.59,1.7-.9,2.56c-.63,1.71-1.14,3.5-1.69,5.29s-1,3.63-1.41,5.52a24.1,24.1,0,0,0,.1,11.66c1.15,3.87,3.7,7.25,6.6,10.24,1.46,1.5,3,2.94,4.57,4.39a56,56,0,0,0,4.9,4.16,19.78,19.78,0,0,0,5.74,3,12.55,12.55,0,0,0,6.49.37,10.06,10.06,0,0,0,5.46-3.42,15.28,15.28,0,0,0,3-5.71,31.11,31.11,0,0,0,1-6.33q.24-3.18.27-6.32a93.47,93.47,0,0,0-2.93-23.91,80.79,80.79,0,0,0-3.5-10.67,10.06,10.06,0,0,0-3.2-4.19,4.82,4.82,0,0,0-4.89-.26,9.79,9.79,0,0,0-3.53,3.47,27.75,27.75,0,0,0-2.16,4.33,46.45,46.45,0,0,0-2.69,8.71,30,30,0,0,0,.68,15.49c.16.56.41,1.07.61,1.59a12.62,12.62,0,0,0,.7,1.48,11.32,11.32,0,0,0,1.85,2.46,6.58,6.58,0,0,0,2.36,1.52,4.07,4.07,0,0,0,2.51.06,4.92,4.92,0,0,0,3-2.85,11.89,11.89,0,0,0,.9-3,18.54,18.54,0,0,0,.25-1.93Z"/><path class="cls-2" d="M255.94,241.17l-.8.66a24.23,24.23,0,0,1-2.45,1.7,35.28,35.28,0,0,1-10.12,4.13,74.41,74.41,0,0,1-16.14,1.88c-6.11.2-12.86.05-19.84,1.1A51.22,51.22,0,0,0,188,257.28a45.56,45.56,0,0,0-12.16,10.61,42.44,42.44,0,0,0-5.63,9.35c-.57,1.16-.85,2.13-1.12,2.76s-.38,1-.38,1,.11-.33.34-1,.52-1.6,1.09-2.77a41.64,41.64,0,0,1,5.58-9.41,45.32,45.32,0,0,1,12.18-10.68,51.37,51.37,0,0,1,18.66-6.69c7-1.05,13.76-.89,19.87-1.08a75.52,75.52,0,0,0,16.1-1.83,35.91,35.91,0,0,0,10.12-4.06,23.69,23.69,0,0,0,2.46-1.67Z"/><path class="cls-2" d="M169.39,362l2.49-.08c1.64-.08,4.05-.18,7.13-.56A60.55,60.55,0,0,0,190.06,359a71.86,71.86,0,0,0,13.68-6,70.92,70.92,0,0,0,14.74-10.52,72.8,72.8,0,0,0,6.91-7.36,80.05,80.05,0,0,0,6.25-8.7c7.92-12.4,13-28.09,15.31-44.84a216.11,216.11,0,0,0,1.9-22.61l.11.11c-14.23.19-27.6,2.5-38.85,6.85a75.08,75.08,0,0,0-26.53,16.9,61.47,61.47,0,0,0-7.63,9.26,73.37,73.37,0,0,0-4.84,7.59,20.26,20.26,0,0,0-2,5.28,13.26,13.26,0,0,0-.18,1.45l0,.49s0-.16,0-.49a10.68,10.68,0,0,1,.16-1.46,19.35,19.35,0,0,1,1.94-5.3,72.56,72.56,0,0,1,4.81-7.62,61.59,61.59,0,0,1,7.63-9.29,75,75,0,0,1,26.56-17c11.26-4.37,24.65-6.69,38.91-6.89h.1V259a216.71,216.71,0,0,1-1.9,22.63c-2.35,16.77-7.41,32.49-15.36,44.91a78.4,78.4,0,0,1-6.27,8.71,73.28,73.28,0,0,1-6.94,7.38,70.94,70.94,0,0,1-14.78,10.51,71.35,71.35,0,0,1-13.71,6,60,60,0,0,1-11.08,2.3c-3.09.37-5.5.46-7.13.52S169.39,362,169.39,362Z"/><path class="cls-2" d="M201.71,303.94A23.58,23.58,0,0,1,203.2,302a10,10,0,0,1,2.2-2,5.47,5.47,0,0,1,1.73-.76,4.75,4.75,0,0,1,2.15,0,4.13,4.13,0,0,1,2.07,1.19A2.84,2.84,0,0,1,212,303a6.86,6.86,0,0,1-1.29,2.59c-.6.81-1.21,1.65-1.89,2.49a58.89,58.89,0,0,1-10.51,10.18,58.09,58.09,0,0,1-7.17,4.62c-2.61,1.36-5.39,2.92-8.63,3.21a6.38,6.38,0,0,1-4.66-1.22,6.28,6.28,0,0,1-2.2-4.44c-.31-3.47,1-6.87,2.45-10.13,3-6.55,8-12.45,14-17.47a92.83,92.83,0,0,1,9.64-7,58.9,58.9,0,0,1,10.9-5.66,26.16,26.16,0,0,1,12.07-1.8,12.86,12.86,0,0,1,5.65,2,8.77,8.77,0,0,1,3.49,4.72,13.08,13.08,0,0,1,.21,5.8,26.94,26.94,0,0,1-1.59,5.48,77.14,77.14,0,0,1-4.84,9.91,83.85,83.85,0,0,1-12.31,16.23A91,91,0,0,1,201.83,334,105.76,105.76,0,0,1,179.11,346c-2.84,1.09-5.09,1.81-6.61,2.3l-2.34.7,2.33-.74c1.52-.5,3.76-1.23,6.59-2.34a106.8,106.8,0,0,0,22.67-12,92.48,92.48,0,0,0,13.48-11.5,83.75,83.75,0,0,0,12.26-16.2,75,75,0,0,0,4.82-9.9,26.37,26.37,0,0,0,1.58-5.44,12.63,12.63,0,0,0-.21-5.7,8.58,8.58,0,0,0-3.4-4.61,12.69,12.69,0,0,0-5.57-2,25.81,25.81,0,0,0-12,1.79A58.66,58.66,0,0,0,201.89,286a93,93,0,0,0-9.63,7c-6,5-10.95,10.87-14,17.39-1.42,3.25-2.74,6.63-2.44,10a6.13,6.13,0,0,0,2.13,4.32,6.26,6.26,0,0,0,4.54,1.19c3.18-.28,6-1.83,8.56-3.18a57.13,57.13,0,0,0,7.16-4.6A58.42,58.42,0,0,0,208.74,308c.68-.83,1.3-1.67,1.89-2.47a6.89,6.89,0,0,0,1.28-2.55,2.73,2.73,0,0,0-.63-2.43,4.06,4.06,0,0,0-2-1.17,4.76,4.76,0,0,0-2.12,0,5.53,5.53,0,0,0-1.71.74,9.9,9.9,0,0,0-2.2,2c-.52.6-.89,1.09-1.14,1.41Z"/><path class="cls-2" d="M307.27,298.2l-1.33-.75-3.79-2.18c-1.65-.94-3.67-2.07-6.07-3.3a62.8,62.8,0,0,0-8.38-3.65,34.76,34.76,0,0,0-10.88-1.82,27.05,27.05,0,0,0-6.12.67,22.6,22.6,0,0,0-6.05,2.38,27.53,27.53,0,0,0-9.63,10,54.85,54.85,0,0,0-5.58,14c-1.36,5-2.41,9.94-3.81,14.63a70.82,70.82,0,0,1-5.39,13,71.94,71.94,0,0,1-7,10.62,81.3,81.3,0,0,1-7.6,8.09,89.4,89.4,0,0,1-12.8,9.71c-1.6,1-2.89,1.74-3.76,2.23l-1.33.74,1.31-.78c.86-.5,2.14-1.23,3.74-2.26a91.12,91.12,0,0,0,12.74-9.75,81.19,81.19,0,0,0,7.57-8.09,71.17,71.17,0,0,0,7-10.61,70.36,70.36,0,0,0,5.36-13c1.4-4.67,2.45-9.63,3.81-14.63a55.32,55.32,0,0,1,5.6-14,27.91,27.91,0,0,1,9.71-10.05,23,23,0,0,1,6.11-2.39,27.4,27.4,0,0,1,6.16-.67,34.9,34.9,0,0,1,10.92,1.86,61.72,61.72,0,0,1,8.39,3.68c2.4,1.24,4.42,2.39,6.06,3.34C305.47,297.11,307.27,298.2,307.27,298.2Z"/><path class="cls-2" d="M306.41,324.92s-.22-.29-.63-.86a7.89,7.89,0,0,0-.79-1,11.54,11.54,0,0,0-1.21-1.27,20.31,20.31,0,0,0-9.78-5,24.67,24.67,0,0,0-7.64-.43,26,26,0,0,0-8.44,2.41c-5.65,2.64-10.91,7.32-15.21,13.05s-7.46,11.89-10.4,17.38-5.59,10.48-8.5,14.22a38.82,38.82,0,0,1-7.95,7.81c-2.13,1.57-3.39,2.31-3.39,2.31l.87-.6c.58-.39,1.42-1,2.47-1.77a39.13,39.13,0,0,0,7.88-7.84c2.88-3.74,5.54-8.71,8.45-14.22s6.07-11.63,10.4-17.42,9.6-10.45,15.3-13.09a26.17,26.17,0,0,1,8.5-2.41,25,25,0,0,1,7.7.46,20.22,20.22,0,0,1,9.8,5.11A12.14,12.14,0,0,1,305,323a7.92,7.92,0,0,1,.79,1C306.21,324.61,306.41,324.92,306.41,324.92Z"/><path class="cls-2" d="M292.93,352.65a3.85,3.85,0,0,1,.77,0,4.67,4.67,0,0,1,2.09.66,6.28,6.28,0,0,1,2.33,2.55,6,6,0,0,1,.37,4.52,7.71,7.71,0,0,1-3.57,4.2,7.83,7.83,0,0,1-6.25.73,9.89,9.89,0,0,1-5.44-4.41,10.86,10.86,0,0,1-1.33-3.51,12.24,12.24,0,0,1-.06-3.87,15.63,15.63,0,0,1,8.48-11.43,13.3,13.3,0,0,1,6.22-1.46,10.14,10.14,0,0,1,5.34,1.54,10.38,10.38,0,0,1,4.73,6.35,8,8,0,0,1,.21,2.19c0,.5-.07.77-.07.77a9.37,9.37,0,0,0-.22-2.94,10.38,10.38,0,0,0-4.73-6.24,10.66,10.66,0,0,0-2.42-1.08,10.94,10.94,0,0,0-2.84-.42,13.14,13.14,0,0,0-6.13,1.46,15.47,15.47,0,0,0-8.36,11.29,11.81,11.81,0,0,0,.05,3.8,10.67,10.67,0,0,0,1.31,3.45,9.75,9.75,0,0,0,5.31,4.33,7.7,7.7,0,0,0,6.11-.7,7.54,7.54,0,0,0,3.52-4.09,5.8,5.8,0,0,0-.33-4.42,6.22,6.22,0,0,0-2.27-2.54,4.49,4.49,0,0,0-2.05-.68C293.2,352.63,292.93,352.67,292.93,352.65Z"/><path class="cls-2" d="M327.69,123.82a2.39,2.39,0,0,1,.09.78,9.15,9.15,0,0,1-.18,2.15,6.51,6.51,0,0,1-1.42,2.9,5,5,0,0,1-3.5,1.85,5.74,5.74,0,0,1-3.72-1.36,7.3,7.3,0,0,1-1.89-2.6,18.14,18.14,0,0,1-.8-2,2.49,2.49,0,0,1-.2-.76,25.13,25.13,0,0,1,1.32,2.58,7.51,7.51,0,0,0,1.87,2.4,5.43,5.43,0,0,0,3.4,1.21,4.63,4.63,0,0,0,3.16-1.65,6.52,6.52,0,0,0,1.42-2.67C327.65,125,327.58,123.81,327.69,123.82Z"/></g></g></svg>